<svg width="510" height="589" viewBox="0 0 510 589" fill="none" xmlns="http://www.w3.org/2000/svg">
<path d="M452.772 458.83C482.984 410.481 495.388 353.109 487.848 296.597C480.308 240.086 453.295 187.973 411.463 149.236L379.844 183.381C413.73 214.76 435.612 256.974 441.72 302.752C447.828 348.529 437.78 395.004 413.307 434.17L452.772 458.83Z" fill="#EFF4FF"/>
<path d="M37.2282 458.83C7.01622 410.481 -5.38807 353.109 2.15219 296.597C9.69245 240.086 36.7051 187.973 78.5369 149.236L110.156 183.381C76.2696 214.76 54.3878 256.974 48.2798 302.752C42.1718 348.529 52.2199 395.004 76.6933 434.17L37.2282 458.83Z" fill="#EFF4FF"/>
<path d="M130.21 380.582C119.797 365.284 113.872 347.703 113.872 329C113.872 311.165 119.26 294.35 128.79 279.563C67.9823 287.876 46.624 292.974 43.5457 294.484C37.8628 329 20.814 347.984 13 353.161V361.215L130.21 380.582Z" fill="#EFF4FF"/>
<path d="M447.744 293.333L364.631 279.563L362.913 279.104C372.628 294.002 378.128 310.981 378.128 329C378.128 347.081 372.59 364.114 362.813 379.048L479 362.366L477.579 352.586C468.487 346.603 453.9 310.591 447.744 293.333Z" fill="#EFF4FF"/>
<path d="M177.161 414V392.3H184.291C186.007 392.3 187.577 392.579 189.003 393.137C190.429 393.674 191.649 394.429 192.661 395.4C193.695 396.351 194.49 397.487 195.048 398.81C195.627 400.133 195.916 401.559 195.916 403.088C195.916 404.679 195.617 406.147 195.017 407.49C194.439 408.813 193.633 409.96 192.599 410.931C191.587 411.902 190.398 412.657 189.034 413.194C187.67 413.731 186.213 414 184.663 414H177.161ZM179.982 412.636H183.392C185.087 412.636 186.523 412.357 187.701 411.799C188.9 411.22 189.882 410.476 190.646 409.567C191.411 408.658 191.969 407.645 192.32 406.529C192.672 405.392 192.847 404.266 192.847 403.15C192.847 401.91 192.641 400.722 192.227 399.585C191.814 398.428 191.204 397.415 190.398 396.547C189.613 395.658 188.631 394.956 187.453 394.439C186.275 393.922 184.922 393.664 183.392 393.664H179.982V412.636ZM200.555 392.3H207.592C208.977 392.3 210.124 392.496 211.033 392.889C211.943 393.261 212.656 393.736 213.172 394.315C213.71 394.873 214.082 395.483 214.288 396.144C214.516 396.805 214.629 397.415 214.629 397.973C214.629 398.593 214.526 399.234 214.319 399.895C214.113 400.536 213.782 401.135 213.327 401.693C212.873 402.251 212.284 402.716 211.56 403.088C210.858 403.46 210.01 403.677 209.018 403.739V403.863L209.328 404.018C209.576 404.142 209.783 404.297 209.948 404.483C210.134 404.669 210.362 404.969 210.63 405.382C210.92 405.795 211.302 406.384 211.777 407.149C212.253 407.893 212.924 408.895 213.792 410.156C214.082 410.59 214.361 410.983 214.629 411.334C214.898 411.665 215.177 411.954 215.466 412.202C215.756 412.429 216.066 412.605 216.396 412.729C216.727 412.853 217.109 412.915 217.543 412.915C217.647 412.915 217.75 412.915 217.853 412.915C217.957 412.894 218.06 412.874 218.163 412.853V414C217.874 414.165 217.585 414.269 217.295 414.31C217.006 414.351 216.634 414.372 216.179 414.372C215.559 414.372 215.022 414.289 214.567 414.124C214.133 413.959 213.741 413.742 213.389 413.473C213.038 413.184 212.707 412.843 212.397 412.45C212.108 412.057 211.808 411.623 211.498 411.148L209.049 407.521C208.677 406.942 208.357 406.457 208.088 406.064C207.82 405.671 207.53 405.351 207.22 405.103C206.91 404.855 206.559 404.679 206.166 404.576C205.794 404.473 205.319 404.421 204.74 404.421H203.376V414H200.555V392.3ZM203.376 393.664V403.026H206.569C207.396 403.026 208.119 402.881 208.739 402.592C209.38 402.303 209.917 401.931 210.351 401.476C210.785 401.001 211.106 400.484 211.312 399.926C211.54 399.347 211.653 398.779 211.653 398.221C211.653 397.56 211.529 396.95 211.281 396.392C211.054 395.834 210.713 395.359 210.258 394.966C209.804 394.553 209.256 394.232 208.615 394.005C207.995 393.778 207.293 393.664 206.507 393.664H203.376ZM224.046 392.3H226.867V414H224.046V392.3ZM232.762 392.3H236.11L243.55 410.156H243.674L250.897 392.3H252.509L243.705 414H241.845L232.762 392.3ZM258.407 392.3H261.228V414H258.407V392.3ZM287.396 392.3H288.822V414.372H288.667L271.462 397.415H271.338V414H269.912V391.928H270.067L287.272 408.885H287.396V392.3ZM315.997 404.328V414H313.331V412.729C312.545 413.142 311.553 413.525 310.355 413.876C309.156 414.207 307.782 414.372 306.232 414.372C304.165 414.372 302.388 414.052 300.9 413.411C299.412 412.75 298.182 411.882 297.211 410.807C296.26 409.712 295.547 408.482 295.072 407.118C294.617 405.733 294.39 404.307 294.39 402.84C294.39 401.125 294.689 399.595 295.289 398.252C295.888 396.888 296.725 395.741 297.8 394.811C298.874 393.881 300.145 393.168 301.613 392.672C303.101 392.176 304.723 391.928 306.48 391.928C308.009 391.928 309.332 392.104 310.448 392.455C311.584 392.786 312.535 393.199 313.3 393.695C314.064 394.191 314.664 394.728 315.098 395.307C315.552 395.865 315.873 396.371 316.059 396.826H313.827C313.703 396.392 313.424 395.968 312.99 395.555C312.576 395.121 312.039 394.739 311.378 394.408C310.716 394.077 309.962 393.809 309.115 393.602C308.267 393.395 307.358 393.292 306.387 393.292C304.919 393.292 303.628 393.53 302.512 394.005C301.416 394.48 300.486 395.152 299.722 396.02C298.957 396.888 298.378 397.921 297.986 399.12C297.614 400.319 297.428 401.631 297.428 403.057C297.428 404.504 297.624 405.837 298.017 407.056C298.43 408.255 299.04 409.298 299.846 410.187C300.652 411.055 301.664 411.737 302.884 412.233C304.103 412.729 305.529 412.977 307.162 412.977C308.402 412.977 309.507 412.832 310.479 412.543C311.45 412.254 312.401 411.809 313.331 411.21V405.599H309.859V404.328H315.997ZM163.363 428.3H166.184V450H163.363V428.3ZM192.352 428.3H193.778V450.372H193.623L176.418 433.415H176.294V450H174.868V427.928H175.023L192.228 444.885H192.352V428.3ZM198.633 444.513H200.741C200.762 444.864 200.845 445.298 200.989 445.815C201.134 446.311 201.413 446.797 201.826 447.272C202.24 447.747 202.839 448.161 203.624 448.512C204.41 448.843 205.453 449.008 206.755 449.008C208.388 449.008 209.69 448.698 210.661 448.078C211.653 447.458 212.149 446.476 212.149 445.133C212.149 444.058 211.839 443.201 211.219 442.56C210.599 441.919 209.814 441.382 208.863 440.948C207.933 440.493 206.921 440.09 205.825 439.739C204.73 439.388 203.707 438.964 202.756 438.468C201.826 437.972 201.051 437.352 200.431 436.608C199.811 435.864 199.501 434.882 199.501 433.663C199.501 432.733 199.687 431.906 200.059 431.183C200.452 430.46 200.969 429.86 201.609 429.385C202.271 428.91 203.025 428.548 203.872 428.3C204.74 428.052 205.65 427.928 206.6 427.928C207.51 427.928 208.378 428.042 209.204 428.269C210.052 428.476 210.806 428.796 211.467 429.23C212.129 429.643 212.676 430.16 213.11 430.78C213.544 431.379 213.823 432.061 213.947 432.826H211.839C211.674 431.607 211.116 430.718 210.165 430.16C209.235 429.581 208.099 429.292 206.755 429.292C205.949 429.292 205.236 429.395 204.616 429.602C203.996 429.788 203.469 430.046 203.035 430.377C202.622 430.687 202.302 431.059 202.074 431.493C201.868 431.927 201.764 432.392 201.764 432.888C201.764 433.777 202.085 434.49 202.725 435.027C203.366 435.564 204.162 436.04 205.112 436.453C206.084 436.866 207.127 437.259 208.243 437.631C209.38 438.003 210.424 438.468 211.374 439.026C212.346 439.563 213.152 440.245 213.792 441.072C214.433 441.878 214.753 442.922 214.753 444.203C214.753 445.133 214.567 445.98 214.195 446.745C213.823 447.51 213.296 448.161 212.614 448.698C211.932 449.235 211.106 449.649 210.134 449.938C209.184 450.227 208.109 450.372 206.91 450.372C205.732 450.372 204.647 450.238 203.655 449.969C202.663 449.68 201.795 449.287 201.051 448.791C200.328 448.274 199.749 447.654 199.315 446.931C198.902 446.208 198.675 445.402 198.633 444.513ZM228.61 450H225.789V430.005H217.481V428.3H236.918V430.005H228.61V450ZM242.498 428.3H245.319V450H242.498V428.3ZM262.032 450H259.211V430.005H250.903V428.3H270.34V430.005H262.032V450ZM273.44 428.3H276.261V442.467C276.261 442.88 276.271 443.294 276.292 443.707C276.313 444.12 276.385 444.534 276.509 444.947C276.633 445.34 276.819 445.743 277.067 446.156C277.315 446.569 277.677 446.983 278.152 447.396C278.751 447.933 279.382 448.336 280.043 448.605C280.725 448.874 281.5 449.008 282.368 449.008C283.381 449.008 284.352 448.863 285.282 448.574C286.212 448.285 287.049 447.737 287.793 446.931C288.206 446.476 288.516 446.022 288.723 445.567C288.95 445.112 289.116 444.658 289.219 444.203C289.322 443.728 289.384 443.263 289.405 442.808C289.426 442.333 289.436 441.868 289.436 441.413V428.3H290.8V442.436C290.8 443.531 290.624 444.565 290.273 445.536C289.922 446.487 289.395 447.324 288.692 448.047C288.01 448.77 287.152 449.339 286.119 449.752C285.106 450.165 283.939 450.372 282.616 450.372C280.508 450.372 278.844 450.083 277.625 449.504C276.406 448.905 275.486 448.171 274.866 447.303C274.246 446.414 273.853 445.464 273.688 444.451C273.523 443.418 273.44 442.477 273.44 441.63V428.3ZM305.02 450H302.199V430.005H293.891V428.3H313.328V430.005H305.02V450ZM317.668 428.3H331.68V430.005H320.489V437.786H330.099V439.212H320.489V448.295H331.68V450H317.668V428.3Z" fill="#EFF4FF"/>
<path d="M142.568 330.376V361H134.56V299.4H142.568V326.328H179.44V299.4H187.448V361H179.44V330.376H142.568ZM236.36 299.4L260.736 356.864H269.36V370.24H261.88V361H208.2V370.24H200.632V356.864H208.904L230.992 299.4H236.36ZM252.288 356.864L231.872 308.992H231.52L213.04 356.864H252.288ZM286.064 299.4H294.072V361H286.064V299.4ZM318.724 361V299.4H340.724C343.775 299.4 346.415 299.869 348.644 300.808C350.932 301.688 352.78 302.832 354.188 304.24C355.655 305.648 356.74 307.203 357.444 308.904C358.148 310.605 358.5 312.277 358.5 313.92C358.5 315.797 358.089 317.587 357.268 319.288C356.447 320.931 355.332 322.397 353.924 323.688C352.575 324.92 350.991 325.947 349.172 326.768C347.353 327.531 345.417 327.912 343.364 327.912V328.264C344.655 328.323 346.356 328.528 348.468 328.88C350.58 329.232 352.633 329.936 354.628 330.992C356.623 332.048 358.324 333.573 359.732 335.568C361.199 337.563 361.932 340.232 361.932 343.576C361.932 345.688 361.551 347.8 360.788 349.912C360.084 351.965 358.911 353.813 357.268 355.456C355.625 357.099 353.455 358.448 350.756 359.504C348.057 360.501 344.743 361 340.812 361H318.724ZM326.732 357.128H339.492C341.369 357.128 343.129 356.864 344.772 356.336C346.473 355.749 347.94 354.899 349.172 353.784C350.404 352.669 351.372 351.32 352.076 349.736C352.839 348.152 353.22 346.333 353.22 344.28C353.22 342.403 352.868 340.613 352.164 338.912C351.519 337.211 350.492 335.715 349.084 334.424C347.735 333.133 346.004 332.107 343.892 331.344C341.78 330.581 339.287 330.2 336.412 330.2H326.732V357.128ZM326.732 326.328H337.292C339.052 326.328 340.695 326.035 342.22 325.448C343.804 324.861 345.183 324.04 346.356 322.984C347.588 321.928 348.527 320.667 349.172 319.2C349.876 317.733 350.228 316.149 350.228 314.448C350.228 313.099 349.993 311.749 349.524 310.4C349.055 309.051 348.292 307.848 347.236 306.792C346.239 305.736 344.919 304.885 343.276 304.24C341.692 303.595 339.756 303.272 337.468 303.272H326.732V326.328Z" fill="#EFF4FF"/>
<path d="M154.933 155.556V144.909L158.127 143.443L245 183.243L445 91.6216L245 0L45 91.6216L135.867 133.242C135.352 134.582 135.077 136.001 135.053 137.436V146.449L119.187 139.182V169.983C119.187 179.103 121.633 187.29 125.833 194.65V263.125C125.833 285.625 164.167 285.625 164.167 263.125V226.084C236.513 258.225 370.807 239.578 370.807 169.976V139.176L245 196.81L154.933 155.556ZM157.5 263.131C157.5 265.511 155.953 267.651 153.513 269.158V184.643L152.2 185.537V269.885L148.267 271.091V187.077L146.967 187.31V271.285H143.033V187.31L141.72 187.077V271.098L137.8 269.891V185.537L136.487 184.643V269.158C134.053 267.645 132.5 265.511 132.5 263.131V183.243C132.5 175.603 136.42 169.23 141.72 167.303V137.436C141.72 135.402 142.733 133.882 144.127 133.249L244.127 87.4282C244.469 87.2662 244.841 87.1776 245.22 87.1682C248.407 87.1682 249.447 94.1684 245.873 95.8084L148.267 140.516V167.303C153.573 169.216 157.5 175.59 157.5 183.243V263.131Z" fill="#EFF4FF"/>
<path d="M268.238 506.57C267.717 504.249 269.181 501.947 271.506 501.428L411.105 470.256C413.429 469.729 415.737 471.197 416.257 473.517C416.779 475.837 415.314 478.14 412.989 478.66L273.391 509.831C273.074 509.903 272.756 509.936 272.444 509.936C270.469 509.936 268.688 508.574 268.238 506.57ZM456 495.728V501.921C456 508.32 451.776 513.833 445.955 515.031L271.906 550.863V559.89C271.906 575.942 260.06 589 245.5 589C230.939 589 219.094 575.942 219.094 559.89V550.878L45.0921 515.834C39.2448 514.656 35 509.137 35 502.713V496.506C35 492.226 36.826 488.313 40.0102 485.771C42.8372 483.514 46.4365 482.661 49.8943 483.438L57.0921 485.055V462.93C57.0921 459.04 58.8215 455.397 61.8374 452.934C64.8534 450.471 68.7772 449.502 72.5931 450.267L177.558 471.376V469.503C177.558 468.212 178.138 466.99 179.139 466.172C180.14 465.354 181.456 465.029 182.722 465.282L207.423 470.235C209.438 470.64 210.888 472.406 210.888 474.457V478.077L211.53 478.207C226.68 480.462 239.23 491.204 245.5 505.745C251.769 491.204 264.319 480.462 279.468 478.207L418.406 450.257C422.228 449.488 426.148 450.461 429.163 452.925C432.179 455.388 433.908 459.032 433.908 462.92V484.31L441.057 482.673C444.516 481.878 448.129 482.722 450.969 484.978C454.166 487.519 456 491.438 456 495.728ZM250.025 522.507H252.627H267.102L425.279 486.286V462.921C425.279 461.624 424.703 460.41 423.698 459.589C422.693 458.769 421.386 458.446 420.113 458.701L281.065 486.672C280.989 486.688 280.912 486.701 280.835 486.712C264.418 489.106 251.756 504.138 250.025 522.507ZM242.689 560.785C242.689 562.331 243.951 563.59 245.5 563.59C247.05 563.59 248.312 562.331 248.312 560.785V531.119H242.689V560.785ZM210.888 486.837V498.893L224.208 501.399C226.55 501.839 228.091 504.09 227.649 506.427C227.259 508.494 225.447 509.936 223.414 509.936C223.149 509.936 222.88 509.912 222.61 509.861L210.888 507.656V519.588L223.888 522.507H238.373H240.975C239.27 504.409 226.952 489.561 210.888 486.837ZM186.187 496.52V496.525V520.007L193.272 516.607C193.866 516.321 194.507 516.182 195.141 516.182C196.14 516.182 197.131 516.528 197.926 517.198L202.259 520.849V477.984L186.187 474.762V496.52ZM65.7215 486.992L177.559 512.104V499.993L82.6058 479.988C80.275 479.497 78.783 477.212 79.2757 474.885C79.7676 472.559 82.0544 471.075 84.3895 471.562L177.558 491.19V480.161L70.888 458.709C69.6168 458.457 68.3086 458.777 67.3033 459.598C66.298 460.419 65.7215 461.633 65.7215 462.93V486.992ZM447.371 495.728C447.371 494.099 446.705 492.598 445.593 491.714C445.039 491.273 444.137 490.803 442.987 491.066L271.905 530.242V532.889C271.905 535.268 269.973 537.195 267.59 537.195C265.207 537.195 263.275 535.268 263.275 532.889V531.118H256.94V560.784C256.94 567.08 251.808 572.202 245.499 572.202C239.19 572.202 234.058 567.08 234.058 560.784V531.118H227.722V532.889C227.722 535.268 225.791 537.195 223.407 537.195C221.024 537.195 219.093 535.268 219.093 532.889V530.257L210.886 528.414V530.118C210.886 531.794 209.912 533.318 208.389 534.024C207.808 534.293 207.188 534.424 206.572 534.424C205.572 534.424 204.582 534.078 203.788 533.408L194.492 525.576L183.741 530.736C182.405 531.377 180.83 531.29 179.574 530.502C178.318 529.714 177.556 528.336 177.556 526.856V520.931L47.9976 491.84C46.8482 491.583 45.9516 492.055 45.3984 492.495C44.2896 493.381 43.6268 494.881 43.6268 496.506V502.713C43.6268 505.016 44.9894 507.027 46.7973 507.392L224.26 543.134C226.273 543.539 227.721 545.305 227.721 547.354V559.891C227.721 571.193 235.696 580.389 245.498 580.389C255.3 580.389 263.274 571.193 263.274 559.891V547.354C263.274 545.312 264.713 543.55 266.718 543.138L444.211 506.598C446.011 506.226 447.369 504.216 447.369 501.921V495.728H447.371Z" fill="#EFF4FF"/>
<path d="M44.4368 435.893L51.5756 433.126L52.2989 434.993L37.9392 440.557L37.2159 438.691L43.4931 436.258L40.1626 427.663L33.8854 430.095L33.1621 428.228L47.5218 422.664L48.2451 424.531L41.1063 427.297L44.4368 435.893ZM38.9357 410.85L41.1761 418.102L46.0776 418.614L46.3763 419.58L29.7403 417.904L29.4156 416.853L42.0125 405.455L42.6424 407.494L38.9357 410.85ZM38.1262 411.583L32.0621 417.072L32.0881 417.156L40.1068 417.994L38.1262 411.583ZM26.139 405.512L33.5265 398.065L33.5058 397.98L23.8567 396.082L23.5876 394.97L38.3729 397.888C38.8346 397.988 39.2196 398.113 39.528 398.265C39.822 398.42 40.068 398.595 40.2657 398.788C40.46 398.968 40.6079 399.173 40.7093 399.405C40.8073 399.623 40.8821 399.839 40.9339 400.053C41.0512 400.537 41.0797 400.998 41.0195 401.435C40.9701 401.855 40.8841 402.185 40.7613 402.426L38.5554 402.009C38.7529 401.765 38.924 401.475 39.0688 401.138C39.2136 400.801 39.2447 400.461 39.1619 400.119C39.0514 399.663 38.8652 399.361 38.603 399.213C38.3375 399.051 38.0449 398.933 37.7253 398.86L35.9139 398.483L26.6928 407.8L26.139 405.512ZM37.9358 388.106L22.7756 390.814L22.4236 388.843L30.9566 387.319L20.9732 380.721L20.7798 379.639L27.6314 384.091L35.7156 375.675L36.1179 377.927L29.1985 385.108L32.2561 387.087L37.5838 386.136L37.9358 388.106ZM27.8283 374.758C26.997 374.847 26.0984 374.788 25.1323 374.581C24.1648 374.36 23.2587 373.955 22.4143 373.366C21.5553 372.779 20.8153 371.995 20.1945 371.014C19.5737 370.033 19.1864 368.821 19.0325 367.377C18.8771 365.918 19.0051 364.629 19.4167 363.508C19.8121 362.375 20.3663 361.416 21.0792 360.632C21.7922 359.848 22.5974 359.239 23.4951 358.804C24.3781 358.37 25.228 358.11 26.0447 358.023C26.5843 357.966 27.1616 357.985 27.7767 358.082C28.3902 358.164 29.0122 358.326 29.6428 358.569C30.2572 358.798 30.8591 359.118 31.4485 359.527C32.0233 359.938 32.549 360.442 33.0258 361.04C33.501 361.624 33.9053 362.303 34.2387 363.079C34.556 363.842 34.7667 364.712 34.8708 365.689C35.0247 367.133 34.9016 368.4 34.5015 369.489C34.0868 370.581 33.5215 371.504 32.8054 372.259C32.0894 373.014 31.2891 373.6 30.4045 374.019C29.5037 374.425 28.645 374.671 27.8283 374.758ZM27.5998 372.614C28.6207 372.506 29.5451 372.252 30.3729 371.854C31.1846 371.443 31.8679 370.935 32.4229 370.33C32.9764 369.711 33.3885 369.011 33.6592 368.23C33.9154 367.45 33.9969 366.623 33.9036 365.748C33.8119 364.887 33.5579 364.096 33.1416 363.373C32.7092 362.637 32.1565 362.018 31.4833 361.514C30.8086 360.996 30.0305 360.615 29.1488 360.369C28.2526 360.126 27.2941 360.058 26.2732 360.167C25.2523 360.276 24.3368 360.543 23.5267 360.968C22.702 361.396 22.0144 361.934 21.4641 362.582C20.9122 363.216 20.5097 363.938 20.2566 364.746C19.9874 365.542 19.8987 366.37 19.9904 367.231C20.0837 368.106 20.3449 368.896 20.7742 369.603C21.1889 370.311 21.7321 370.909 22.4037 371.398C23.0737 371.873 23.8561 372.224 24.7507 372.453C25.6292 372.67 26.5789 372.723 27.5998 372.614ZM33.4799 353.475L18.092 354.086L17.8736 348.59C17.8433 347.828 17.9344 347.164 18.1467 346.598C18.3438 346.018 18.6112 345.545 18.949 345.179C19.2862 344.799 19.6637 344.512 20.0817 344.319C20.4998 344.127 20.9139 344.022 21.3243 344.006C21.7932 343.987 22.2443 344.072 22.6774 344.26C23.0959 344.449 23.4734 344.713 23.8098 345.052C24.1309 345.377 24.4031 345.762 24.6263 346.208C24.8349 346.655 24.9494 347.135 24.9698 347.648L25.0577 347.644C25.0595 347.321 25.0939 346.894 25.1609 346.363C25.2279 345.832 25.3834 345.312 25.6273 344.804C25.8713 344.295 26.2355 343.855 26.7198 343.483C27.2035 343.097 27.863 342.887 28.6984 342.854C29.2259 342.833 29.7573 342.907 30.2925 343.077C30.8124 343.232 31.2857 343.507 31.7123 343.901C32.139 344.295 32.4976 344.824 32.7882 345.488C33.0641 346.152 33.2216 346.975 33.2606 347.957L33.4799 353.475ZM32.4331 351.513L32.3065 348.325C32.2878 347.856 32.2044 347.419 32.0562 347.014C31.8928 346.595 31.6657 346.237 31.375 345.94C31.0843 345.644 30.7377 345.415 30.335 345.255C29.9317 345.08 29.4736 345.003 28.9607 345.023C28.4917 345.042 28.0483 345.148 27.6302 345.34C27.2117 345.519 26.8481 345.79 26.5397 346.154C26.2307 346.504 25.9914 346.947 25.8219 347.482C25.6523 348.017 25.5818 348.644 25.6103 349.362L25.7064 351.78L32.4331 351.513ZM24.7392 351.818L24.6344 349.18C24.6169 348.741 24.5273 348.333 24.3656 347.958C24.2033 347.568 23.9845 347.232 23.709 346.949C23.433 346.652 23.1086 346.43 22.7358 346.284C22.3625 346.122 21.9633 346.05 21.5383 346.067C21.2012 346.08 20.8665 346.152 20.5341 346.283C20.2017 346.414 19.9088 346.616 19.6555 346.89C19.4016 347.15 19.2022 347.488 19.0573 347.905C18.9118 348.307 18.8504 348.794 18.8732 349.365L18.9797 352.047L24.7392 351.818ZM25.3567 340.73C24.521 340.708 23.638 340.53 22.7078 340.198C21.778 339.85 20.9334 339.329 20.1741 338.634C19.4001 337.939 18.7702 337.064 18.2845 336.01C17.7987 334.955 17.575 333.702 17.6132 332.251C17.6518 330.785 17.9491 329.523 18.5051 328.467C19.0468 327.396 19.7228 326.518 20.533 325.835C21.3433 325.153 22.222 324.655 23.1692 324.342C24.1018 324.029 24.9786 323.884 25.7996 323.905C26.3421 323.92 26.9118 324.015 27.5087 324.192C28.1059 324.355 28.7011 324.598 29.2941 324.922C29.8728 325.23 30.4273 325.626 30.9574 326.11C31.4729 326.593 31.9274 327.162 32.3209 327.818C32.7148 328.46 33.0258 329.187 33.2538 330C33.4676 330.798 33.5615 331.688 33.5357 332.67C33.4974 334.121 33.2081 335.361 32.6675 336.388C32.1123 337.415 31.4299 338.256 30.6204 338.909C29.811 339.563 28.9401 340.039 28.008 340.337C27.0615 340.62 26.1778 340.751 25.3567 340.73ZM25.4135 338.574C26.4398 338.601 27.3895 338.472 28.2626 338.187C29.1215 337.887 29.866 337.474 30.496 336.947C31.1265 336.407 31.6275 335.767 31.9991 335.028C32.356 334.289 32.546 333.48 32.5691 332.601C32.5919 331.735 32.4447 330.917 32.1276 330.146C31.7962 329.36 31.3301 328.673 30.7294 328.085C30.129 327.482 29.4081 327.001 28.5666 326.641C27.7104 326.281 26.7692 326.088 25.7429 326.061C24.7166 326.034 23.7738 326.178 22.9145 326.492C22.0406 326.807 21.2881 327.249 20.6568 327.819C20.026 328.375 19.5317 329.037 19.1741 329.805C18.8021 330.558 18.6048 331.367 18.582 332.232C18.5588 333.112 18.7134 333.93 19.0455 334.687C19.3631 335.444 19.8224 336.109 20.4235 336.682C21.025 337.241 21.7541 337.693 22.6106 338.038C23.4529 338.369 24.3872 338.547 25.4135 338.574ZM20.1315 303.807L35.1744 299.656L35.4581 297.519L38.773 297.959L38.527 299.812L36.2371 299.508L34.4714 312.812L36.7613 313.116L36.5123 314.991L33.1974 314.551L33.4695 312.501L19.9549 305.137L20.1315 303.807ZM34.8965 301.749L22.361 305.234L22.3495 305.322L33.6056 311.476L34.8965 301.749ZM29.2599 294.348C28.4417 294.176 27.6051 293.843 26.7499 293.348C25.8977 292.839 25.1606 292.175 24.5387 291.355C23.9025 290.532 23.4403 289.558 23.1522 288.433C22.8641 287.308 22.8694 286.035 23.1681 284.615C23.4698 283.179 23.9892 281.992 24.7262 281.053C25.4518 280.096 26.2746 279.355 27.1945 278.829C28.1144 278.303 29.0683 277.972 30.0563 277.835C31.03 277.695 31.9187 277.709 32.7224 277.878C33.2535 277.99 33.7966 278.186 34.3519 278.468C34.9102 278.735 35.4519 279.081 35.977 279.507C36.4908 279.914 36.9649 280.404 37.3994 280.975C37.8196 281.543 38.1642 282.184 38.4333 282.9C38.7054 283.602 38.8805 284.373 38.9586 285.214C39.0253 286.037 38.9575 286.93 38.7553 287.892C38.4566 289.312 37.949 290.48 37.2324 291.393C36.5014 292.304 35.679 293.007 34.7652 293.505C33.8513 294.002 32.9091 294.313 31.9384 294.439C30.9565 294.547 30.0636 294.517 29.2599 294.348ZM29.7034 292.238C30.7081 292.449 31.6656 292.493 32.5758 292.37C33.4746 292.229 34.2813 291.957 34.9958 291.552C35.7132 291.134 36.3212 290.595 36.8195 289.935C37.3035 289.272 37.6361 288.51 37.8171 287.649C37.9951 286.802 37.9976 285.971 37.8243 285.155C37.6398 284.322 37.305 283.563 36.8198 282.876C36.3377 282.175 35.7151 281.572 34.952 281.067C34.1746 280.559 33.2836 280.199 32.2789 279.988C31.2742 279.777 30.3209 279.749 29.419 279.904C28.5028 280.056 27.6829 280.356 26.9594 280.803C26.2389 281.236 25.6336 281.798 25.1436 282.489C24.6422 283.163 24.3025 283.924 24.1244 284.771C23.9434 285.632 23.9482 286.465 24.1387 287.269C24.315 288.07 24.6471 288.807 25.1353 289.479C25.6265 290.137 26.2623 290.713 27.0427 291.207C27.8118 291.683 28.6987 292.027 29.7034 292.238ZM42.1479 262.358L42.9014 261.888C43.0601 262.132 43.2296 262.471 43.4099 262.905C43.5903 263.338 43.7302 263.859 43.8296 264.468C43.9189 265.058 43.9447 265.737 43.9067 266.505C43.8728 267.258 43.726 268.086 43.4661 268.988C43.056 270.411 42.4844 271.575 41.7511 272.478C41.0037 273.376 40.1752 274.054 39.2656 274.509C38.3419 274.96 37.3683 275.214 36.3448 275.27C35.3112 275.308 34.3011 275.185 33.3146 274.901C32.173 274.572 31.201 274.078 30.3986 273.42C29.5821 272.757 28.9533 271.973 28.512 271.068C28.0567 270.158 27.797 269.152 27.7329 268.05C27.6729 266.934 27.8195 265.762 28.1728 264.536C28.4164 263.691 28.7181 262.961 29.0781 262.347C29.438 261.734 29.837 261.223 30.2751 260.815C30.7132 260.407 31.1832 260.1 31.6853 259.893C32.1915 259.673 32.7146 259.526 33.2547 259.452L32.804 261.017C32.4796 261.03 32.14 261.123 31.785 261.296C31.42 261.45 31.068 261.692 30.7288 262.022C30.3937 262.337 30.0825 262.728 29.7954 263.195C29.5124 263.648 29.2836 264.177 29.109 264.783C28.8532 265.671 28.7778 266.542 28.8827 267.397C28.9917 268.237 29.2559 269.015 29.6754 269.731C30.0949 270.447 30.6616 271.076 31.3756 271.618C32.0796 272.141 32.9108 272.541 33.8691 272.817C34.7711 273.077 35.6785 273.185 36.5912 273.143C37.508 273.087 38.3646 272.868 39.1613 272.487C39.9579 272.106 40.6682 271.547 41.2924 270.811C41.9165 270.075 42.3869 269.158 42.7036 268.058C43.272 266.085 43.0868 264.185 42.1479 262.358ZM34.2169 247.167L50.9767 246.168L50.2295 248.214L36.1691 249.005L36.1389 249.087L44.8964 256.853C45.4984 257.385 45.9199 257.898 46.1611 258.392C46.4073 258.872 46.4499 259.333 46.2888 259.774C46.1882 260.049 46.0669 260.317 45.925 260.578C45.788 260.824 45.6355 261.05 45.4673 261.254L44.2658 260.183C44.385 260.07 44.523 259.949 44.6799 259.818C44.8367 259.688 44.9478 259.534 45.0132 259.355C45.1792 258.9 45.114 258.501 44.8175 258.159C44.526 257.803 44.1131 257.394 43.5787 256.934L33.8018 248.304L34.2169 247.167ZM38.427 236.259L39.2143 234.418L53.3735 240.474L52.5862 242.315L38.427 236.259ZM45.2321 221.795L60.8094 222.727L61.7683 220.796L64.7634 222.283L63.9316 223.958L61.8627 222.93L55.8938 234.95L57.9627 235.977L57.1212 237.672L54.1261 236.185L55.0459 234.332L44.6352 222.997L45.2321 221.795ZM59.87 224.618L46.8808 223.866L46.8417 223.945L55.5058 233.406L59.87 224.618ZM58.7851 212.764L65.3612 216.685L64.3361 218.404L51.1083 210.519L52.1334 208.799L57.9158 212.246L62.636 204.328L56.8536 200.881L57.8787 199.162L71.1065 207.047L70.0814 208.767L63.5053 204.847L58.7851 212.764ZM73.6581 199.955L67.8185 184.654L68.9733 183.019L81.553 191.902L80.3982 193.537L69.1663 185.606L75.1317 200.995L73.9769 202.631L61.3972 193.747L62.552 192.112L73.6581 199.955ZM76.1799 172.221C76.0019 172.435 75.7714 172.701 75.4885 173.019C75.1942 173.328 74.8652 173.598 74.5013 173.829C74.1468 174.05 73.763 174.179 73.35 174.217C72.9369 174.256 72.5216 174.102 72.104 173.755L71.9009 173.586L73.2359 171.978C73.2829 172.036 73.33 172.094 73.377 172.153C73.4222 172.19 73.4729 172.232 73.5294 172.279C73.7664 172.476 73.9947 172.58 74.2144 172.59C74.4342 172.601 74.6341 172.567 74.8142 172.488C75.0037 172.397 75.165 172.283 75.2981 172.146C75.4405 171.998 75.5539 171.872 75.6382 171.771C75.7225 171.669 75.8199 171.54 75.9304 171.384C76.0409 171.228 76.1185 171.054 76.1632 170.863C76.2173 170.66 76.2188 170.451 76.1677 170.238C76.1166 170.024 75.9725 169.818 75.7355 169.621C75.6791 169.575 75.6236 169.538 75.5691 169.512C75.5127 169.465 75.4516 169.424 75.3858 169.388L76.7348 167.763L76.9379 167.932C77.3555 168.279 77.5834 168.658 77.6218 169.071C77.6601 169.484 77.5989 169.891 77.4382 170.291C77.2868 170.68 77.0819 171.054 76.8234 171.411C76.563 171.748 76.3485 172.017 76.1799 172.221ZM84.6659 185.041L80.0363 169.332L81.315 167.791L93.1643 177.628L91.8855 179.168L81.3058 170.386L86.054 186.193L84.7752 187.733L72.926 177.897L74.2047 176.357L84.6659 185.041Z" fill="#0A0E17"/>
<path d="M417.702 177.924L419.143 179.565L406.518 190.649L405.077 189.008L417.702 177.924ZM418.764 192.486L412.129 197.559L410.803 195.824L424.148 185.619L425.475 187.354L419.641 191.815L425.749 199.803L431.583 195.342L432.91 197.077L419.565 207.282L418.238 205.547L424.872 200.474L418.764 192.486ZM433.174 222.53L433.012 223.484C432.698 223.437 432.299 223.33 431.814 223.163C431.33 222.996 430.804 222.732 430.235 222.373C429.689 222.018 429.116 221.547 428.518 220.96C427.928 220.386 427.359 219.667 426.812 218.802C425.948 217.436 425.413 216.127 425.208 214.875C425.016 213.614 425.064 212.448 425.352 211.376C425.653 210.296 426.151 209.318 426.847 208.442C427.565 207.571 428.397 206.837 429.343 206.238C430.439 205.545 431.546 205.11 432.664 204.933C433.796 204.747 434.891 204.802 435.949 205.098C437.021 205.386 438.03 205.902 438.975 206.649C439.929 207.408 440.778 208.376 441.522 209.553C442.035 210.364 442.412 211.139 442.651 211.877C442.891 212.615 443.019 213.311 443.034 213.964C443.05 214.616 442.96 215.222 442.764 215.781C442.577 216.354 442.318 216.887 441.987 217.381L441.037 215.88C441.262 215.606 441.432 215.261 441.548 214.847C441.687 214.437 441.744 213.975 441.721 213.459C441.707 212.957 441.613 212.42 441.44 211.848C441.276 211.289 441.01 210.719 440.642 210.138C440.104 209.286 439.448 208.593 438.675 208.06C437.91 207.54 437.084 207.191 436.196 207.015C435.308 206.838 434.385 206.845 433.426 207.035C432.489 207.23 431.561 207.618 430.641 208.2C429.776 208.747 429.03 209.409 428.403 210.184C427.785 210.972 427.343 211.83 427.077 212.755C426.81 213.681 426.751 214.665 426.899 215.708C427.047 216.75 427.455 217.798 428.122 218.853C429.32 220.746 431.004 221.971 433.174 222.53ZM435.564 233.452L434.547 231.519L448.246 224.31L445.251 218.618L446.419 218.004L453.426 231.321L452.258 231.935L449.263 226.243L435.564 233.452ZM442.569 243.459L460.112 246.841L460.964 248.852L445.496 255.408L444.644 253.397L458.454 247.543L440.757 244.227L439.904 242.217L455.372 235.66L456.224 237.671L442.569 243.459ZM449.454 266.693L448.773 264.618L463.48 259.789L461.474 253.678L462.728 253.266L467.422 267.563L466.168 267.975L464.162 261.864L449.454 266.693ZM468.706 272.392L460.698 280.567L460.721 280.66L471.26 282.664L471.561 283.875L455.412 280.793C454.908 280.687 454.487 280.553 454.15 280.389C453.828 280.222 453.558 280.034 453.341 279.824C453.128 279.63 452.965 279.406 452.853 279.154C452.745 278.917 452.662 278.682 452.604 278.449C452.473 277.921 452.438 277.419 452.501 276.941C452.552 276.484 452.644 276.123 452.776 275.859L455.185 276.299C454.971 276.566 454.787 276.884 454.631 277.253C454.475 277.621 454.444 277.992 454.536 278.364C454.66 278.861 454.865 279.189 455.152 279.349C455.443 279.524 455.763 279.65 456.112 279.728L458.091 280.127L468.086 269.9L468.706 272.392ZM456.97 297.592L456.601 295.44L471.858 292.822L470.77 286.483L472.071 286.259L474.616 301.091L473.315 301.314L472.227 294.974L456.97 297.592ZM459.241 315.614L476.013 314.64L476.36 320.63C476.409 321.46 476.322 322.187 476.102 322.808C475.899 323.445 475.616 323.967 475.255 324.372C474.895 324.794 474.489 325.114 474.037 325.332C473.585 325.551 473.135 325.673 472.688 325.699C472.177 325.729 471.683 325.645 471.207 325.449C470.747 325.251 470.33 324.971 469.956 324.608C469.599 324.26 469.295 323.845 469.042 323.363C468.806 322.879 468.672 322.358 468.639 321.799L468.543 321.805C468.548 322.157 468.519 322.624 468.456 323.204C468.394 323.785 468.235 324.355 467.979 324.915C467.723 325.475 467.334 325.962 466.813 326.377C466.293 326.808 465.578 327.05 464.668 327.102C464.093 327.136 463.512 327.065 462.925 326.891C462.354 326.732 461.833 326.442 461.36 326.02C460.886 325.599 460.485 325.029 460.154 324.311C459.84 323.592 459.652 322.698 459.59 321.628L459.241 315.614ZM460.422 317.733L460.623 321.207C460.653 321.718 460.753 322.193 460.922 322.632C461.109 323.086 461.364 323.472 461.687 323.79C462.01 324.107 462.392 324.35 462.835 324.516C463.278 324.699 463.779 324.774 464.338 324.742C464.85 324.712 465.331 324.588 465.783 324.369C466.236 324.167 466.627 323.863 466.957 323.46C467.287 323.072 467.539 322.584 467.713 321.997C467.887 321.41 467.952 320.725 467.906 319.943L467.753 317.307L460.422 317.733ZM468.807 317.246L468.974 320.121C469.002 320.6 469.108 321.043 469.292 321.449C469.477 321.871 469.722 322.233 470.028 322.536C470.335 322.855 470.693 323.09 471.103 323.243C471.513 323.411 471.95 323.482 472.413 323.455C472.781 323.434 473.145 323.349 473.504 323.2C473.864 323.051 474.18 322.824 474.451 322.52C474.722 322.231 474.933 321.859 475.083 321.401C475.234 320.96 475.291 320.428 475.255 319.805L475.085 316.881L468.807 317.246ZM468.332 329.494C469.244 329.516 470.207 329.708 471.223 330.07C472.238 330.447 473.16 331.015 473.989 331.772C474.834 332.529 475.523 333.482 476.054 334.632C476.586 335.782 476.832 337.148 476.792 338.732C476.752 340.331 476.429 341.708 475.824 342.861C475.235 344.031 474.499 344.988 473.616 345.735C472.733 346.481 471.775 347.025 470.742 347.367C469.725 347.71 468.769 347.87 467.873 347.848C467.282 347.833 466.66 347.729 466.009 347.537C465.357 347.361 464.707 347.096 464.06 346.744C463.428 346.408 462.823 345.977 462.244 345.45C461.68 344.924 461.184 344.303 460.754 343.589C460.323 342.89 459.983 342.097 459.733 341.21C459.498 340.34 459.395 339.369 459.421 338.298C459.461 336.714 459.775 335.361 460.363 334.24C460.967 333.119 461.71 332.201 462.593 331.487C463.475 330.773 464.424 330.252 465.44 329.925C466.473 329.615 467.436 329.471 468.332 329.494ZM468.273 331.845C467.154 331.817 466.118 331.959 465.166 332.271C464.229 332.6 463.418 333.052 462.731 333.627C462.044 334.218 461.499 334.916 461.094 335.723C460.706 336.529 460.5 337.412 460.476 338.372C460.452 339.316 460.614 340.208 460.961 341.049C461.324 341.906 461.833 342.655 462.489 343.296C463.145 343.952 463.932 344.476 464.851 344.867C465.785 345.259 466.812 345.469 467.932 345.497C469.052 345.525 470.08 345.366 471.017 345.021C471.97 344.677 472.79 344.194 473.478 343.571C474.165 342.964 474.704 342.241 475.093 341.402C475.497 340.58 475.711 339.697 475.735 338.753C475.759 337.794 475.589 336.901 475.226 336.076C474.878 335.251 474.376 334.526 473.72 333.902C473.063 333.293 472.267 332.801 471.332 332.425C470.413 332.066 469.393 331.873 468.273 331.845ZM474.895 361.206L458.548 365.96L458.271 368.296L454.649 367.866L454.889 365.84L457.392 366.137L459.118 351.599L456.615 351.302L456.859 349.252L460.481 349.682L460.215 351.923L475.068 359.753L474.895 361.206ZM458.82 363.672L472.442 359.683L472.453 359.587L460.082 353.043L458.82 363.672ZM472.868 375.746L472.464 377.892L455.954 374.786L456.357 372.639L472.868 375.746ZM462.061 385.555L453.975 383.464L454.522 381.35L470.787 385.555L470.241 387.67L463.13 385.831L460.613 395.567L467.723 397.405L467.177 399.52L450.911 395.314L451.458 393.2L459.544 395.291L462.061 385.555ZM456.363 405.663L448.495 402.862L449.228 400.805L465.055 406.439L464.322 408.496L457.404 406.033L454.031 415.507L460.95 417.97L460.217 420.027L444.39 414.393L445.123 412.336L452.991 415.137L456.363 405.663ZM452.864 437.075L437.542 430.185L438.438 428.193L445.202 431.234L445.635 430.271C445.818 429.863 445.936 429.503 445.988 429.193C446.033 428.898 446.017 428.601 445.941 428.304C445.864 428.006 445.73 427.7 445.538 427.386C445.346 427.071 445.104 426.691 444.814 426.245L443.031 423.364C442.793 422.994 442.585 422.637 442.406 422.294C442.221 421.965 442.082 421.63 441.989 421.29C441.911 420.957 441.886 420.603 441.913 420.23C441.935 419.871 442.043 419.473 442.24 419.035C442.385 418.714 442.517 418.458 442.638 418.267C442.76 418.075 442.924 417.904 443.133 417.752L443.943 418.116C443.895 418.183 443.848 418.249 443.801 418.315C443.768 418.388 443.735 418.461 443.702 418.534C443.564 418.841 443.487 419.13 443.469 419.403C443.452 419.676 443.478 419.951 443.546 420.227C443.629 420.51 443.745 420.799 443.893 421.094C444.056 421.395 444.245 421.717 444.459 422.059C445.074 423.072 445.568 423.865 445.943 424.436C446.332 425.015 446.63 425.464 446.836 425.785C447.036 426.121 447.175 426.377 447.254 426.552C447.327 426.743 447.367 426.945 447.376 427.16L447.387 427.428L447.475 427.467C447.833 426.786 448.259 426.25 448.751 425.857C449.237 425.479 449.749 425.218 450.287 425.074C450.826 424.93 451.354 424.887 451.872 424.945C452.404 425.009 452.89 425.139 453.327 425.336C453.721 425.513 454.119 425.78 454.52 426.136C454.915 426.506 455.228 426.962 455.458 427.504C455.695 428.068 455.801 428.729 455.775 429.489C455.764 430.256 455.538 431.128 455.099 432.106L452.864 437.075ZM452.797 434.65L453.791 432.439C454.04 431.885 454.187 431.345 454.23 430.821C454.266 430.311 454.21 429.829 454.063 429.377C453.93 428.931 453.706 428.532 453.391 428.18C453.069 427.842 452.674 427.569 452.207 427.359C451.813 427.182 451.379 427.074 450.905 427.036C450.439 427.02 449.969 427.089 449.496 427.245C449.037 427.407 448.607 427.661 448.206 428.007C447.798 428.367 447.463 428.839 447.2 429.423L446.187 431.677L452.797 434.65Z" fill="#0A0E17"/>
</svg>
